<svg xmlns="http://www.w3.org/2000/svg" width="64" height="64" viewBox="0 0 64 64"><path d="M17.45 10.442c.267-.534-.79-.904-1.208-.534-1.565 1.38-1.7 6.007-1.207 7.163.492 1.16 1.386 3.784 2.19 4.14.806.356 1.387-.044 1.387-.49s-1.878-2.224-2.28-4.36c-.403-2.136.85-5.384 1.117-5.917zm21.1 3.025c0 .578.493.8.85.667.358-.133.58-.534.626-1.913.045-1.377-1.61-3.913-2.46-4.58-.848-.668-1.488-1.04-1.877-.757-.673.49 1.16 2.18 2.19 3.38 1.03 1.203.67 2.627.67 3.205zm-4.246 8.9c1.162-2.315.268-7.253-2.28-12.237-2.548-4.983-6.438-4.672-7.556-4.182-5.99 2.625-5.678 6.763-4.918 9.522.76 2.76 2.772 7.742 7.02 9.344 4.247 1.6 6.57-.135 7.734-2.448zm-12.34-6.542c-.535-2.536.403-4.894 2.37-5.65 1.758-.677 4.47-.312 6.617 2.49s2.953 6.986 1.88 9.167c-1.073 2.18-3.22 2.848-5.23 1.78s-5.098-5.25-5.634-7.787h-.002zm14.754 17.04c-.94-4.582 3.04-5.472 5.052-8.23 2.012-2.76 3.13-6.985 2.95-9.3-.178-2.313-1.92-6.94-1.877-7.563.045-.623 4.38-3.648 4.694-4.093.313-.447.626-1.47.313-2.27s-.94-.8-2.682-.846C43.424.52 32.918-.148 28.626.03s-8.763 1.335-12.25 3.026c-3.487 1.69-6.483 4.36-8.137 7.964s-1.835 6.007-.673 10.545 4.65 7.252 6.393 8.587c1.745 1.335 8.406 2.27 8.898 2.492 0 0 .134.49.224 1.112.09.623.447 1.157.447 1.157s-.226.178-1.298.267c-1.073.09-5.23 1.29-8.63 3.515-3.397 2.225-8.136 6.318-7.555 10.812.582 4.493 1.655 7.608 5.857 10.767 4.202 3.16 8.405 4.227 15.782 3.515 7.377-.714 12.965-4.763 15.2-8.545 2.235-3.782 2.235-7.43.715-11.48-1.52-4.048-5.944-6.317-6.883-10.9zm5.454 16.02c-.358-.223-3.8-3.116-4.74-3.427-.938-.31-1.25-.534-1.43-.133-.18.4-.313.98.313 1.112.626.133 3.666 2.358 4.292 2.76.626.4 1.207.444 1.252.933.043.49-.047 1.335-.315 1.157-.268-.178-4.515-3.56-4.784-3.515-.267.045-.983.667-.58.98.4.31 4.65 3.29 4.65 3.736s-.27.934-.447.89c-.18-.044-4.247-3.337-4.515-3.114-.27.222-.85.89-.672.98.18.088 3.666 2.67 3.62 2.936-.044.267-.76 1.2-.983.934-.224-.267-2.46-2.67-2.86-2.625-.403.043-.806.532-.716.71.088.18 2.547 2.314 2.458 2.536-.09.222-.805.49-.805.49s-2.28-1.914-2.682-1.825c-.4.09-.893.535-.67.713.224.178 2.19 1.646 2.056 1.824s-1.207.578-1.207.578-1.79-2.002-2.192-1.69c-.402.31-.984.266-.715.577.268.31 1.475 1.78 1.207 2.002s-5.41 1.157-10.774.712c-5.365-.445-9.39-2.002-11.132-4.36-1.743-2.358-2.46-6.05-1.877-8.365.58-2.313 4.158-5.56 7.153-7.296 2.994-1.735 7.957-2.937 8.672-3.026.715-.09 1.475-.446 1.34-1.202-.133-.756-.893-2.18-.312-3.115.58-.933 2.817-2.89 2.37-3.336-.448-.445-.895-.267-3.98-.49s-8.897-1.156-10.82-2.624c-1.92-1.468-4.157-4.538-3.933-10.19.085-2.14 1.967-6.362 4.65-8.586 2.682-2.225 8.45-4.05 10.82-4.583 2.37-.533 8.18-.355 11.355-.31 3.174.045 9.7-.09 9.925.22.224.313-4.56 2.983-4.828 3.34-.27.356-.448 1.424.088 2.536s1.386 4.227 1.7 5.65c.312 1.425-.046 2.404-.046 2.404s-1.7-1.645-1.878-1.378c-.18.267-.895.8-.448 1.023.447.222 1.878 1.69 1.967 1.913.09.223.223 1.602-.046 1.424-.27-.178-2.64-2.892-2.996-2.625-.358.267-1.028.4-.492.8s3.13 2.85 3.13 3.116c0 .267-.225 1.29-.537 1.246-.314-.047-3.488-3.428-3.8-3.295s-.67.49-.537.712c.133.222 3.53 3.47 3.486 3.693-.046.224-.76 1.113-.94 1.07-.18-.045-2.77-2.893-2.95-2.76s-.627.8-.403 1.023c.224.223 2.46 2.447 2.37 2.67s-.493.89-.895.845c-.403-.045-1.834-1.69-2.147-1.602-.313.09-.94.267-.715.623.224.354 1.878 1.822 1.744 2.045-.134.222-1.386 1.602-1.61 2.358-.223.756-.357 1.69-.357 1.69s-2.95-2.357-3.22-2.224-.58.844-.312 1.022c.268.178 2.86 1.958 2.906 2.09.045.134.358 1.024.09.89-.27-.132-2.37-1.78-2.505-1.512-.134.268.134 1.07.268 1.247.134.178 2.46 1.69 2.593 2.002.134.31.536 1.78.536 1.78s-2.234-1.915-2.413-1.515c-.18.4 0 1.023.312 1.2.313.18 3.532 2.003 3.98 2.448s.535 1.068.535 1.068-.94.757-.67.98c.267.22 3.173 1.735 4.246 2.67 1.074.934 1.566 2.047 1.566 2.403s-.27.445-.27.445-4.47-3.872-5.364-3.738c-.894.133-.58.8-.224 1.157.357.355 5.006 3.647 5.453 3.96.447.31.85.577.85.89.003.31.137 1.466-.22 1.244l.007.005zm-27.584-6.052c-.18-.356-.67-.356-2.28.445-1.61.8-2.727 2.58-3.264 3.515-.536.934-.268 3.782-.045 3.915 0 0 .49.133 1.07.09.58-.046.314-3.205.76-4.272.448-1.068 2.46-2.225 3.265-2.536.805-.312.67-.8.492-1.157zm5.99-2.136c-3.71 1.157-6.036 4.193-7.107 5.473-2.68 3.204-.713 6.63 1.254 8.365 1.967 1.735 4.515 2.403 9.433 2.27 4.918-.134 8.36-2.938 9.88-6.186 1.52-3.25 0-5.74-2.1-7.833-2.103-2.09-7.647-3.248-11.357-2.09h-.002zm9.97 12.325c-2.37 1.29-6.214 2.447-9.076 2.447-2.86 0-6.17-2.36-5.9-4.63s1.564-4.27 2.816-4.982c1.57-.894 5.544-2.493 8.807-2.36 3.264.134 5.14 2.626 5.544 4.406.4 1.78.177 3.825-2.193 5.116v.002zm27.272-19.8c.268-.178.224-4.672-.045-5.428-.268-.756-3.666-.89-3.845-.934-.18-.045-.18-2.358-.447-2.98-.268-.624-5.616-.33-5.857-.09-.224.222.045 3.16.045 3.426 0 .267-4.11.133-4.65.267s-.222 5.34 0 5.65c.226.312 2.73.18 2.953.223.224.045.313 2.09.313 2.76s2.504 2.046 2.906 2.268c.403.222 5.41-.09 6.036-.49s.09-4.226.134-4.448c.046-.224 2.192-.046 2.46-.224h-.002zm-5.633-1.513c0 .532.358 4.09.18 4.225s-3.175.045-3.354-.178c-.18-.222-.224-3.87-.536-4.004-.313-.133-4.337.09-4.38-.133-.046-.22-.493-2.67.267-2.802.76-.133 4.515.223 4.56-.31.045-.535-.045-3.027.134-3.427.167-.373 2.906-.265 3.085.135.18.4-.045 3.026.358 3.16.404.132 3.355.043 3.49.31s.18 2.76-.09 2.892c-.27.133-3.71-.4-3.71.133h-.003z"/></svg>